# xmcd
#
# Track frame offsets: 
#        150
#        14759
#        36834
#        53111
#        75156
#        96932
#        118962
#        139205
#        157777
#        175546
#        199097
#        217333
#        237473
#
# Disc length: 3690 seconds
#
# Revision: 0
# Processed by: cddbd v1.5.2PL0 Copyright (c) Steve Scherf et al.
# Submitted via: ExactAudioCopy v0.99pb4
#
DISCID=b20e680d
DTITLE=Harmonica Shah - If All You Have Is A Hammer,Everything Looks L
DTITLE=ike A Nail
DYEAR=2009
DGENRE=Blues
TTITLE0=Out On The Highway
TTITLE1=I Wonder Why? 
TTITLE2=Bumble Bee Man
TTITLE3=Nasty Brown Rat
TTITLE4=I've Got A Woman Black As Midnight Gold
TTITLE5=Stranded In Detroit
TTITLE6=Every Goodbye Ain't Gone
TTITLE7=f You Don't Leave, I'll Get Somebody Who Will
TTITLE8=Blues For Ford Chrysler And G.M.
TTITLE9=Don't You Feel Like A Dog Covered In Fleas
TTITLE10=Boom Boom
TTITLE11=Duke And Queen Blues
TTITLE12=Cryin' Won't Help Me Now
EXTD=
EXTT0=
EXTT1=
EXTT2=
EXTT3=
EXTT4=
EXTT5=
EXTT6=
EXTT7=
EXTT8=
EXTT9=
EXTT10=
EXTT11=
EXTT12=
PLAYORDER=
